<?xml version="1.0" encoding="utf-8"?>
<!-- Generator: Adobe Illustrator 18.0.0, SVG Export Plug-In . SVG Version: 6.00 Build 0)  -->
<!DOCTYPE svg PUBLIC "-//W3C//DTD SVG 1.1//EN" "http://www.w3.org/Graphics/SVG/1.1/DTD/svg11.dtd">
<svg version="1.1" id="Layer_1" xmlns="http://www.w3.org/2000/svg" xmlns:xlink="http://www.w3.org/1999/xlink" x="0px" y="0px"
	 viewBox="0 0 400 570" enable-background="new 0 0 400 570" xml:space="preserve">
<ellipse fill="#F0F5DC" stroke="#000000" stroke-width="5.3213" stroke-miterlimit="10" cx="201.3" cy="285" rx="169.7" ry="276.5"/>
<path fill="none" stroke="#B78C21" stroke-width="5.3213" stroke-miterlimit="10" d="M201.3,550.9c-41.5,0-80.9-27-110.9-75.9
	c-31-50.6-48.1-118-48.1-190c0-71.9,17.1-139.4,48.1-190c30-49,69.5-75.9,110.9-75.9s80.9,27,110.9,75.9c31,50.6,48.1,118,48.1,190
	c0,71.9-17.1,139.4-48.1,190C282.2,523.9,242.8,550.9,201.3,550.9z"/>
<rect x="3.8" y="432.1" fill="#F0F5DC" stroke="#000000" stroke-width="6.2082" stroke-miterlimit="10" width="392.4" height="81.8"/>
<rect x="13.4" y="441.7" fill="none" stroke="#B78C21" stroke-width="3.5475" stroke-miterlimit="10" width="373.2" height="62.6"/>
<text transform="matrix(1 0 0 1 28.4934 489.9577)" font-family="'TrajanPro3-Bold'" font-size="43.6301">LOLLY CREEK</text>
<g>
	<path fill="#B78C21" d="M224.1,397.5c1.9,10.9-6.5,11.6-12.1,13.1c-7.1,1.9-16-3.6-16.9-8.7c-0.6-3.3,1.9-3.7,3.7-2.9
		C207.3,402.8,215.4,400.7,224.1,397.5z"/>
	<path fill="#B78C21" d="M169.8,403c-6.2-1.9-12.6-4.1-18.1-8c-2.3-1.7-3.7-4.4-1.8-6.9c2.4-3.1,3.9,0.5,5.3,1.7
		c4.7,3.8,10,4.3,15.7,4.3c2.7,0,7.5-2.7,7.1,3C177.8,400.9,174.9,403.9,169.8,403z"/>
	<path fill="#B78C21" d="M256.5,363.1c8.2,2.9,15.8,3,23.3-0.1c1.3-0.5,2.8-1.7,4-0.3c1.5,1.9,0.8,4.3-0.3,5.7
		c-4.5,5.6-11.2,6.1-17.4,5.8C260.6,373.9,256.7,370.2,256.5,363.1z"/>
	<path fill="#B78C21" d="M233.4,163c-2.6-0.4-7,0.6-10-3c-0.4-0.5,0.1-2.4,0.7-3.1c3.6-3.4,7.6-2.2,11.5-0.7
		c6.6,2.6,10.4-2,14.7-5.3c1.5-1.2,3.2-3.4,5.1-1c1.3,1.6-0.3,3.4-1.4,4.7C249.1,160.7,242.6,163.5,233.4,163z"/>
	<path fill="#B78C21" d="M192,159.3c-7.1-5.5-13.8-5.9-20.9-3.5c-1.6,0.6-3.5,1.7-4.6-0.4c-1.1-2-0.6-4.3,1-5.7
		c5.7-5.3,11.8-0.7,17.6-0.2C189.2,149.9,192.9,152,192,159.3z"/>
	<path fill="#B78C21" d="M208.8,265.5c-5.7-1-11.4-2.2-16.5-5.4c-1.9-1.2-3-3.5-1.9-5.3c1.7-3,3.4-0.1,4.9,0.8
		c4.2,2.5,8.6,3.2,13.5,2.5c2.6-0.4,6.9-3.7,7.3,1.9C216.4,264.1,213,265.9,208.8,265.5z"/>
	<path fill="#B78C21" d="M144.2,342.6c2.2,0.8,3.5,2.8,4.6,4.8c2.2,4.1,4.2,8.3,8.2,11.2c1.4,1,4.5,1.6,2.5,4.3
		c-1.2,1.6-3.5,2-5.7,1.4c-4-1.2-13-15-12.4-19.2C141.6,343.6,141.9,342.3,144.2,342.6z"/>
	<path fill="#B78C21" d="M223.7,195.4c-1.7,0.2-2.3,0.4-2.8,0.4c-4.7,0-11.9-0.5-11.4-4.9c0.6-5.8,7-1.6,10.9-1.6
		c2.9,0,5.8-0.2,8.7-0.5c2-0.2,4.7-3,5.6,0.7c0.6,2.7-1.3,5.2-4.2,5.8C227.9,195.8,225.3,195.4,223.7,195.4z"/>
	<path fill="#B78C21" d="M217,380.3c0.3,0-0.6,0.1-1.4,0c-3.5-0.7-6.8-1.8-9.2-4.5c-0.3-0.3,0.1-1.8,0.5-2.2
		c3.3-2.6,6.6-1.4,9.7,0.5c4.7,2.8,8.3,0.2,12.1-2.1c1.4-0.8,3.2-2.6,4.6-0.8c1.9,2.4-0.8,3.6-2.2,4.8
		C227.4,379,223.2,380.7,217,380.3z"/>
	<path fill="#B78C21" d="M169.1,203c-6.8-4.9-13.5-5.9-20.6-3c-1.6,0.7-3.5,1.4-4.7-0.6c-1.2-2.1-0.2-4.3,1.2-5.6
		c5.7-5.2,11.7-0.8,17.5,0C166.6,194.3,170.7,196,169.1,203z"/>
	<path fill="#B78C21" d="M236.1,231.9c-0.3,5.3-1.3,8.9-5.8,8.8c-6.6-0.1-13.6,1.8-19.5-2.9c-0.5-0.4-1-1.6-0.7-2.2
		c1-2.4,3.2-2.3,5.3-2C221.9,234.6,228.6,235.3,236.1,231.9z"/>
	<path fill="#B78C21" d="M104.8,336.3c3.1,7.8,7.4,12.8,14.4,14.9c1.8,0.5,4.5,0.9,3.5,3.9c-0.7,2.1-2.8,3.1-4.9,3.3
		C111,359.2,101.3,344.3,104.8,336.3z"/>
	<path fill="#B78C21" d="M199.2,343.6c-6.7-0.2-11.5-2-15.2-6.2c-1.2-1.4-3.9-2.6-1.7-4.9c1.6-1.7,4.2-1.4,5.6,0.1
		c5,5.4,10.6,8,17.9,4.8c1-0.4,2.6,0.1,2.5,1.6c-0.1,0.9-1,2.2-1.9,2.5C203.7,342.5,200.9,343.1,199.2,343.6z"/>
	<path fill="#B78C21" d="M140,301.1c-4.2,3.6-7.4,5.1-10.5,1.7c-4.5-4.9-10.7-8.7-11.2-16.3c0-0.7,0.7-1.8,1.3-2c2.5-0.8,4,1,5,2.6
		C128.2,292.9,132.4,298,140,301.1z"/>
	<path fill="#B78C21" d="M229.1,319.6c-5.9,9.6-16,12.3-24.5,7.2c-1.6-0.9-4.5-1.4-3.3-4.2c1-2.3,3.5-1.9,5.5-1.7
		C219.2,322.6,219.2,322.6,229.1,319.6z"/>
	<path fill="#B78C21" d="M183.5,290.8c-8-0.6-13.3-4.2-16.5-10.9c-0.7-1.5-2.4-3.3-0.7-4.7c1.9-1.6,4.5-0.5,5.4,1.2
		c3.6,6.8,8.6,10.9,16.7,10.7c0.5,0,1.6,1.3,1.4,1.7C188.5,292.5,185.2,289.5,183.5,290.8z"/>
	<path fill="#B78C21" d="M108.4,257.3c-1.7,4-5,6-7.9,8.4c-2.6,2.2-5.7,2.3-7.7-0.5c-1.9-2.6,0.2-5.1,2-6.9
		C98.9,254.3,103.5,254.5,108.4,257.3z"/>
	<path fill="#B78C21" d="M237,268.3c6.8-0.2,13.3,0.8,18.9-2.9c1.3-0.8,2.9-1,3.7,0.7c0.7,1.5,0.1,2.8-1,4
		C255.2,273.8,241.4,273.1,237,268.3z"/>
	<path fill="#B78C21" d="M185.7,115.1c-1.6,0.3-2.7,0.7-3.9,0.7c-2.3,0.1-5.9,2.8-6.4-1.3c-0.5-4.3,3.4-5,6.8-4.5
		c3.5,0.4,6.9,1.2,10.3,2.2c2,0.6,4,2.3,3.1,4.6c-1.1,2.6-2.8,0.3-4.3-0.2C189.4,116,187.4,115.5,185.7,115.1z"/>
	<path fill="#B78C21" d="M110.6,199.8c-1.8-0.1-3.6,0.1-5.2-0.4c-2.1-0.6-3.5-2.6-3.2-4.7c0.5-3.5,3.7-2.9,5.5-2
		c3.8,1.9,10.3-1.3,11.4,3.4C119.7,199.1,114.3,200.1,110.6,199.8z"/>
	<path fill="#B78C21" d="M244.2,74.1c0.6-0.1,1.2-0.1,1.7-0.2c6.4,0.9,6.9,6.9,10.4,11.3C241.8,82.6,241.2,82,244.2,74.1z"/>
	<path fill="#B78C21" d="M283.2,114.2c6.5,0.6,7.1,4.3,5.1,9.5c-3,1-6.6,3.7-8.8,0.2C277.1,120.1,280.5,116.9,283.2,114.2z"/>
	<path fill="#B78C21" d="M122.8,179.7c-2,3.4-4.7,3.9-7.3,3.1c-3.3-1-5.8-3.7-5.2-7c0.5-2.7,3.4-1.3,5.2-0.6
		C118.1,176.2,121.5,176.7,122.8,179.7z"/>
	<path fill="#B78C21" d="M315.4,274.7c-5.6-1.8-4.8,5.3-8.4,6.2c-1.7,0.4-3.4,3.1-5.1,0.3c-1.5-2.5,1.4-2.5,2.4-3.6
		c2.8-2.9,5.6-5.8,8.3-8.7c4.2,0.2-0.8,5.1,2.9,5.6C315.6,274.6,315.4,274.7,315.4,274.7z"/>
	<path fill="#B78C21" d="M110,236.6c-5.3,0.1-8,5.8-12.3,1.2c-1-1.1-2.2-2.5-0.7-3.6C100.9,231.2,104.6,232.7,110,236.6z"/>
	<path fill="#B78C21" d="M238.9,58.1c2.9,1.9,3.2,4.2,1.2,6.9c-0.8,0.3-1.6,0.8-2.4,0.9c-3,0.5-6.4,0.5-7.2-2.7
		c-0.9-3.5,3.2-3.3,5.1-4.6C236.4,57.9,237.8,58.2,238.9,58.1z"/>
	<path fill="#B78C21" d="M136.4,100.6c-4.8,0-6.6-3-7.2-6.1c-0.5-2.4,2-2.6,3.7-2.1c3,0.9,7.1,1.2,7.8,4.7
		C141.3,100.1,138,100.3,136.4,100.6z"/>
	<path fill="#B78C21" d="M303.5,340.9c3.1,3.6,7.8,6.6,5,11.3c-1.5,2.6-8.2-1.1-7.4-3.9c0.4-1.4,1.2-2.6,1.7-4
		C303.2,343.2,303.3,342,303.5,340.9z"/>
	<path fill="#B78C21" d="M156.8,76.9c-0.4,2.3-1.8,3.1-3.8,3c-2.9-0.1-5-1.8-5.9-4.4c-0.7-2,0.9-2.8,2.4-2.5
		C152.2,73.6,155.2,74.1,156.8,76.9z"/>
	<path fill="#F0F5DC" d="M284.2,219.4c-7.8,0-15.5,0-23.3,0C268.7,218,276.3,213.8,284.2,219.4z"/>
	<path fill="#B78C21" d="M126.5,132.5c2.5,0.6,6,0.8,7,3.8c0.8,2.4-1.8,3.2-3.9,3.4c-3.5,0.4-5.4-1.8-6.1-4.9
		C123,132.9,124.6,132.5,126.5,132.5z"/>
	<path fill="#B78C21" d="M293.2,201c1.4-0.2,2.8-0.1,2.7,1.4c-0.2,2.7-2.1,4.2-4.6,4.1c-1.2,0-3.4-1.5-3.3-2.1
		C288.4,201.4,291.4,201.9,293.2,201z"/>
</g>
<path fill="#141413" d="M279.8,249.1c5.8,3.5,13.4,7.3,19.3-1.9c1.8-2.8,3.1-10.6,9.8-4.1c0.9,0.8,3.6-1.2,5-2.9
	c1.5-1.8,3-4.3,4.9-4.9c7.8-2.4,4.5-5,0.8-8.5c-8.2-7.8-18.5-7.5-27.3-7.3c2.2-2.9,4.4-6.7,7.4-9.6c4.9-4.8,4-11.1-2.4-13.5
	c-4.6-1.7-9.2-1.1-13.9,0.1c-7.9,2.1-15.8,4.7-24.7,5.1c0.7-1.4,1-2.5,1.7-3.3c9.1-10.7,21.9-15,34.8-16.9
	c8.8-1.3,10.5-7.9,12.4-12.8c2.1-5.8-4.1-7-9.2-7.3c-3.3-0.2-4.4-1.3-2.7-5.1c3.2-7,0.4-10.3-7.3-10c-4.1,0.2-7.7,3.4-12,2.1
	c15.6-14.9,15.6-14.9,15.9-24.6c-0.5,0-0.9,0-1.4-0.1c0.5,0,0.9,0,1.4,0.1c2.5-3.3,5-6.9,3.1-11.1c-1.4-3.2-4.5-1.2-7-1.1
	c-6.5-4.1-12-1.5-17.6,2.3c-5.1,3.5-10.5,6.5-15.8,9.9c-6.1,3.8-11.6,8.8-19.1,10.4c0.7-16.9,8.8-30.1,21-39.4
	c5.9-4.5,5.4-7.6,3.6-12.3c-1.4-3.6-3.9-6.8-5.9-10.2c-0.4-1.9-1.9-2-3.4-2l-0.7-0.2c0,0,0,0,0,0c-1.7-1.9-4.1-1.4-6.3-1.7
	c0.1-0.5,0.1-1-0.2-1.5c4.8-9.8,4.1-11.6-5-12.8c-7.3-5.6-10.7,0.6-13.4,5.3c-5.4,9.1-11.3,17.5-19.9,25.7c-0.3-3.5-0.8-6-0.8-8.5
	c-0.1-9.7-0.4-19.5-2.6-29c-1-4.3-3-9.8-7.8-8.9c-5.9,1-8.1,6-6.3,12.4c1.4,5.1,3.6,10,2.9,15.5c-0.2,1.9,1,4.5-1.4,5.4
	c-2.4,0.9-3.8-1.5-4.9-3c-4.7-6.6-10.3-7-16.9-3.1c-4.5,2.6-9.2,3.1-14.5,1.8c-6.9-1.7-14,3.2-13.8,9.8c0.2,6,5.6,8.3,10.7,8.3
	c7.5,0.1,13.6,3.4,20.1,6.1c5.1,2.2,11.3,5.8,8.5,11.1c-2.5,4.7-9.2,2.7-14.2-0.3c-8.4-5-17.1-9.4-25.5-14.2
	c-4.7-2.7-9.3-1.8-13.5,0.4c-4.6,2.5-1.8,6.7-1.8,10.3c-0.1,10.4,8,8,13.8,8.8c2.8,0.4,6.7-1.9,8.2,1.1c4.7,9.3,13.6,12.1,22,16.1
	c2.1,1,4.1,3.6,4.6,7.7c-7.4-4.3-14.1-7.6-20.1-11.8c-6.6-4.6-14.3-2.8-21-4.9c-10.6-3.3-8.5,9.5-15.3,10.2
	c-0.7,0.1-1.6,1.6-1.8,2.6c-0.9,4,6.2,13.4,10.2,15.3c7.6,3.6,16.5,1,23.9,5.5c10.2,6.2,18.6,15.4,30.6,18.7
	c0.9,0.2,1.4,1.6,3.8,4.3c-10,0-18.2,0.5-26.3-0.1c-13.2-1.1-26.4-3-39.6-4.4c-6.8-0.7-18.5,8.2-15.6,11.5c6.1,7.2,0.8,7.5-4.2,9
	c-1.8,0.5-6.4-0.9-4.7,4c2.1,5.9,14.1,12.5,20.3,11.3c18.3-3.3,34.8,3.1,51.5,9.3c-9.5-1.6-17.2,3.9-25.9,5.3
	c-8.9,1.4-17.7-0.7-26.5-0.5c-2.2,0-4.9,1.1-6.4,2.7c-3.9,4.1-8.2,7.6-13.6,9.6c-3.4,1.3-3.8,4.6-1.7,6.3c4.7,3.8,8.3,11.9,16.7,6.3
	c1.9-1.3,4-1.3,5.9-0.3c3.7,2,6.5,0.6,9.8-1.4c7.7-4.6,21.1-2.4,28.8,6c-17.7-4-32.9,0.6-48.4,2.7c-10.8,1.4-14.3,10.3-21.4,15.3
	c-2.4,1.7,0,4.2,1.5,5c10.2,5.1,3.5,9-0.6,13.4c-1.5,1.6-5.3,2.6-2.5,6.2c5.9,7.5,15.8,8.2,23,1.5c1.8-1.7,3.7-2.9,6.1-3.2
	c1.4-0.2,3.1-0.8,3.8,1.1c0.7,1.8-0.6,2.6-2,3.3c-3.9,1.9-8.2,3.5-11.7,6c-8.7,6.1-9.5,12-2.9,20.6c2.1,2.8,2.3,5.6,2.2,9.1
	c-0.2,6-3.1,11-4.4,16.5c-1.2,4.8-4.1,11.1,5.5,11.1c2.8,0,3.7,3.1,4.4,5.1c3.7,10.5,11.5,8.3,19.6,7.6c8.8-0.7,3-7.5,5.5-10.6
	c0.9-1,1.4-2.3,2.5-4.2c2.4,3.5,3.7,7.3,6.4,9c8.3,5.4,9.1,11.3,5.9,20.8c-3.8,11.2,4.9,25,14.5,27c15.5,3.2,23.4-1.3,27.3-15.4
	c0.1-0.3,0.7-0.5,1.3-0.9c1.8,4.2,3.2,8.3,5.3,12.2c2.5,4.6,5.5,9.5,11.3,10c19.3,1.8,29.1-8.6,26.2-27.5c-0.4-2.4-1.4-4.7,1.6-6
	c2.5-1.2,4.8-3.6,8.1-1.4c6,3.8,12.4,7.1,14.6,14.7c1.6,5.5,6.4,7.7,10.9,9.6c4.6,1.9,8.8,0.2,7.4-5.8c-2.3-9.8-2.8-17,10.4-19.3
	c7.6-1.3,7.9-10.5,9.1-16.8c0.8-4.1-2.3-7.9-7.2-8.6c-3.8-0.6-7-1.6-7.6-6c-0.1-0.6,0.7-1.9,1.1-1.9c3.9-0.3,7.7-0.2,10.7,2.9
	c0.6,0.6,1.1,1.4,1.6,2.1c2.3,3.3,2.7,8.8,9.5,6c4.2-1.7,9.4-0.3,13.7-2.5c0.8-0.4,1.2-1.9,1.4-3c0.7-5-9-20.1-13.9-21.9
	c-13.8-5.3-27.6-10.6-41.4-15.9c-4.5-1.7-8.4-4-10-9.9c3.3,0.9,6,1.7,8.8,2.3c9.9,1.9,18.8,7.6,28.4,9.2c6.5,1,11.1,1.9,13.6,8.1
	c0.5,1.3,1.9,3.6,2.8,2.5c4.1-5.4,10.3-3.6,15.4-5.3c2.3-0.8,3.4-3.1,2-5c-7.3-10.4-10.6-24.7-26.9-26.6
	c-10.2-1.2-19.3-7.2-29.6-8.5c-1.2-0.1-3.4-1-3.3-4.4c13.2,4,28.7-2.4,39.1,11.2c0.4,0.5,1.6,0.7,2.5,0.6
	c4.3-0.3,12.6-9.7,12.8-14.5c-5.6-1.8-4.8,5.3-8.4,6.2c-1.7,0.4-3.4,3.1-5.1,0.3c-1.5-2.5,1.4-2.5,2.4-3.6c2.8-2.9,5.6-5.8,8.3-8.7
	c4.2,0.2-0.8,5.1,2.9,5.6c4,0.9,4.5-2.2,4.8-4.7c0.5-3.4-1.8-5.4-4.6-6.8c-6.8-3.3-14.1-3.9-21.5-4.3c-13.9-0.7-27.3-3.5-41.1-13.3
	C263.6,247.3,271.6,244.2,279.8,249.1z M283.2,114.2c6.5,0.6,7.1,4.3,5.1,9.5c0,0,0,0,0,0c-3,1-6.6,3.7-8.8,0.2
	C277.1,120.1,280.5,116.9,283.2,114.2z M153,79.9c-2.9-0.1-5-1.8-5.9-4.4c-0.7-2,0.9-2.8,2.4-2.5c2.7,0.6,5.7,1.1,7.2,3.9
	C156.4,79.2,154.9,80,153,79.9z M136.4,100.6c-4.8,0-6.6-3-7.2-6.1c-0.5-2.4,2-2.6,3.7-2.1c3,0.9,7.1,1.2,7.8,4.7
	C141.3,100.1,138,100.3,136.4,100.6z M129.6,139.7c-3.5,0.4-5.4-1.8-6.1-4.9c-0.4-1.9,1.1-2.3,3-2.3c2.5,0.6,6,0.8,7,3.8
	C134.2,138.6,131.6,139.5,129.6,139.7z M110.6,199.8c-1.8-0.1-3.6,0.1-5.2-0.4c-2.1-0.6-3.5-2.6-3.2-4.7c0.5-3.5,3.7-2.9,5.5-2
	c3.8,1.9,10.3-1.3,11.4,3.4C119.7,199.1,114.3,200.1,110.6,199.8z M115.5,182.7c-3.3-1-5.8-3.7-5.2-7c0.5-2.7,3.4-1.3,5.2-0.6
	c2.7,1.1,6.1,1.6,7.4,4.5C120.7,183.1,118.1,183.5,115.5,182.7z M97.7,237.8c-1-1.1-2.2-2.5-0.7-3.6c3.9-2.9,7.5-1.4,12.9,2.5
	C104.7,236.8,102,242.4,97.7,237.8z M100.5,265.7c-2.6,2.2-5.7,2.3-7.7-0.5c-1.9-2.6,0.2-5.1,2-6.9c4.1-4,8.7-3.8,13.5-1
	C106.7,261.3,103.4,263.3,100.5,265.7z M301.2,348.2c0.4-1.4,1.2-2.6,1.7-4c0.4-1.1,0.5-2.2,0.7-3.3c3.1,3.6,7.8,6.6,5,11.3
	C307,354.7,300.3,351.1,301.2,348.2z M279.9,363c1.3-0.5,2.8-1.7,4-0.3c1.5,1.9,0.8,4.3-0.3,5.7c-4.5,5.6-11.2,6.1-17.4,5.8
	c-5.5-0.3-9.4-4-9.5-11.1C264.7,366,272.3,366.1,279.9,363z M244.2,74.1c0.6-0.1,1.2-0.1,1.7-0.2v0c6.4,0.9,6.9,6.9,10.4,11.3
	C241.8,82.6,241.2,82,244.2,74.1z M235.6,58.5c0.8-0.6,2.2-0.3,3.3-0.5c2.9,1.9,3.2,4.2,1.2,6.9c0,0,0,0,0,0
	c-0.8,0.3-1.6,0.8-2.4,0.9c-3,0.5-6.4,0.5-7.2-2.7C229.5,59.7,233.7,59.9,235.6,58.5z M209.5,190.9c0.6-5.8,7-1.6,10.9-1.6
	c2.9,0,5.8-0.2,8.7-0.5c2-0.2,4.7-3,5.6,0.7c0.6,2.7-1.3,5.2-4.2,5.8c-2.5,0.5-5.2,0.1-6.7,0.1c-1.7,0.2-2.3,0.4-2.8,0.4
	C216.2,195.8,209,195.3,209.5,190.9z M208.8,258.1c2.6-0.4,6.9-3.7,7.3,1.9c0.3,4.1-3.1,5.9-7.3,5.5c-5.7-1-11.4-2.2-16.5-5.4
	c-1.9-1.2-3-3.5-1.9-5.3c1.7-3,3.4-0.1,4.9,0.8C199.5,258.1,203.9,258.8,208.8,258.1z M229.1,319.6c-5.9,9.6-16,12.3-24.5,7.2
	c-1.6-0.9-4.5-1.4-3.3-4.2c1-2.3,3.5-1.9,5.5-1.7C219.2,322.6,219.2,322.6,229.1,319.6z M182.3,110c3.5,0.4,6.9,1.2,10.3,2.2
	c2,0.6,4,2.3,3.1,4.6c-1.1,2.6-2.8,0.3-4.3-0.2c-2-0.6-3.9-1-5.6-1.4c-1.6,0.3-2.7,0.7-3.9,0.7c-2.3,0.1-5.9,2.8-6.4-1.3
	C175,110.2,178.9,109.5,182.3,110z M171.1,155.8c-1.6,0.6-3.5,1.7-4.6-0.4c-1.1-2-0.6-4.3,1-5.7c5.7-5.3,11.8-0.7,17.6-0.2
	c4.2,0.4,7.9,2.4,7,9.8C185,153.8,178.2,153.4,171.1,155.8z M148.5,200c-1.6,0.7-3.5,1.4-4.7-0.6c-1.2-2.1-0.2-4.3,1.2-5.6
	c5.7-5.2,11.7-0.8,17.5,0c4,0.5,8.2,2.2,6.6,9.2C162.3,198.1,155.6,197.1,148.5,200z M122.7,355.1c-0.7,2.1-2.8,3.1-4.9,3.3
	c-6.8,0.7-16.5-14.1-13-22.2c3.1,7.8,7.4,12.8,14.4,14.9C120.9,351.7,123.7,352.1,122.7,355.1z M129.5,302.7
	c-4.5-4.9-10.7-8.7-11.2-16.3c0-0.7,0.7-1.8,1.3-2c2.5-0.8,4,1,5,2.6c3.6,5.8,7.8,11,15.4,14C135.9,304.7,132.6,306.1,129.5,302.7z
	 M141.4,345.2c0.2-1.5,0.6-2.9,2.8-2.6c2.2,0.8,3.5,2.8,4.6,4.8c2.2,4.1,4.2,8.3,8.2,11.2c1.4,1,4.5,1.6,2.5,4.3
	c-1.2,1.6-3.5,2-5.7,1.4C149.7,363.3,140.8,349.4,141.4,345.2z M178,397c-0.3,3.9-3.1,6.9-8.3,6c-6.2-1.9-12.6-4.1-18.1-8
	c-2.3-1.7-3.7-4.4-1.8-6.9c2.4-3.1,3.9,0.5,5.3,1.7c4.7,3.8,10,4.3,15.7,4.3C173.6,394,178.4,391.4,178,397z M167.1,279.9
	c-0.7-1.5-2.4-3.3-0.7-4.7c1.9-1.6,4.5-0.5,5.4,1.2c3.6,6.8,8.6,10.9,16.7,10.7c0.5,0,1.6,1.3,1.4,1.7c-1.4,3.7-4.7,0.7-6.3,2
	C175.6,290.2,170.2,286.6,167.1,279.9z M184,337.4c-1.2-1.4-3.9-2.6-1.7-4.9c1.6-1.7,4.2-1.4,5.6,0.1c5,5.4,10.6,8,17.9,4.8
	c1-0.4,2.6,0.1,2.5,1.6c-0.1,0.9-1,2.2-1.9,2.5c-2.7,1-5.5,1.7-7.2,2.2C192.5,343.4,187.7,341.6,184,337.4z M212,410.6
	c-7.1,1.9-16-3.6-16.9-8.7c-0.6-3.3,1.9-3.7,3.7-2.9c8.5,3.8,16.6,1.7,25.3-1.5C225.9,408.4,217.5,409.1,212,410.6z M231.2,376
	c-3.7,3-8,4.7-14.1,4.3c0.3,0-0.6,0.1-1.4,0c-3.5-0.7-6.8-1.8-9.2-4.5c-0.3-0.3,0.1-1.8,0.5-2.2c3.3-2.6,6.6-1.4,9.7,0.5
	c4.7,2.8,8.3,0.2,12.1-2.1c1.4-0.8,3.2-2.6,4.6-0.8C235.3,373.6,232.6,374.8,231.2,376z M230.3,240.7c-6.6-0.1-13.6,1.8-19.5-2.9
	c-0.5-0.4-1-1.6-0.7-2.2c1-2.4,3.2-2.3,5.3-2c6.7,0.9,13.3,1.7,20.8-1.7C235.7,237.2,234.7,240.8,230.3,240.7z M255.9,265.5
	c1.3-0.8,2.9-1,3.7,0.7c0.7,1.5,0.1,2.8-1,4c-3.4,3.7-17.2,2.9-21.7-1.9C243.7,268.1,250.2,269.1,255.9,265.5z M254.1,154.5
	c-4.9,6.2-11.4,9-20.7,8.5c-2.6-0.4-7,0.6-10-3c-0.4-0.5,0.1-2.4,0.7-3.1c3.6-3.4,7.6-2.2,11.5-0.7c6.6,2.6,10.4-2,14.7-5.3
	c1.5-1.2,3.2-3.4,5.1-1C256.7,151.4,255.1,153.2,254.1,154.5z M293.2,201c1.4-0.2,2.8-0.1,2.7,1.4c-0.2,2.7-2.1,4.2-4.6,4.1
	c-1.2,0-3.4-1.5-3.3-2.1C288.4,201.4,291.4,201.9,293.2,201z M284.2,219.4c-7.8,0-15.5,0-23.3,0C268.7,218,276.3,213.8,284.2,219.4z
	"/>
</svg>
